:SAMPLES-PER-SECOND 30
:FULLY-SPECIFIED
:DEGREES
524
root  -13.0431 37.9051 -6.97215 0.812988 -69.6914 7.42621
RightUpLeg  -41.5039 -26.3948 5.46265
RightLeg  18.3898 -7.78616 1.42695
RightFoot  10.251 1.6777 -8.43197
RightToes  5.82063e-011 0 -3.6325e-017
Spine  66.1395 -6.3516 9.03137
Spine1  6.06163 -0.306792 -2.95418
HEad  -39.1346 -3.43021 6.1617
LeftShoulder1  3.56642 -24.5735 -4.75971
LeftArm  -44.3848 -74.6069 -18.0651
LeftForeArm  -23.5842 1.47327 -0.272072
LeftHand  -0.244104 0.0205437 5.32207
RightShoulder  2.32601 12.3643 7.09313
RightArm  -54.7149 71.2383 13.8459
RightForeArm  -50.6167 6.31507 3.21911
RightHand  -3.65777 12.0146 -24.38
LeftUpLeg  -37.8817 5.7721 0.481315
LeftLeg  51.2578 4.50718 6.43966
LeftFoot  -3.7404 0.381806 -5.57406
LeftToes  1.45487e-011 -6.19069e-011 1.65092e-011
525
root  -11.8449 37.7169 -6.90084 -0.851929 -69.6576 8.64856
RightUpLeg  -39.2894 -22.1442 0.18282
RightLeg  14.9413 -13.8199 2.80215
RightFoot  12.4881 1.20954 -5.33567
RightToes  5.82063e-011 0 -3.6325e-017
Spine  66.0478 -6.07945 8.25138
Spine1  6.52818 -0.261015 -3.26277
HEad  -39.064 -3.63915 5.89225
LeftShoulder1  3.42482 -24.252 -4.35308
LeftArm  -43.3932 -75.0121 -19.0838
LeftForeArm  -23.5624 2.08923 -0.326559
LeftHand  -0.244104 0.0205437 5.32207
RightShoulder  2.27894 12.4592 6.64477
RightArm  -54.0615 70.9078 14.7216
RightForeArm  -50.9671 5.88917 3.08021
RightHand  -3.62003 11.9149 -24.2724
LeftUpLeg  -34.8884 6.63326 -0.69735
LeftLeg  50.4972 4.22289 5.93917
LeftFoot  -7.21466 0.348277 -8.27617
LeftToes  1.45487e-011 -6.19069e-011 1.65092e-011
526
root  -10.6095 37.5629 -6.85208 -3.61972 -68.9212 10.9236
RightUpLeg  -37.3683 -19.5033 -4.33948
RightLeg  11.8338 -19.0109 3.5607
RightFoot  11.8325 0.0565626 0.225279
RightToes  5.82063e-011 0 -3.6325e-017
Spine  66.2206 -6.03432 7.24798
Spine1  7.13378 -0.539545 -3.52353
HEad  -39.2822 -3.78185 5.42872
LeftShoulder1  3.22767 -23.9241 -3.71607
LeftArm  -42.6508 -75.5718 -20.1516
LeftForeArm  -23.5056 2.69069 -0.263234
LeftHand  -0.244104 0.0205437 5.32207
RightShoulder  2.2692 12.4534 6.58229
RightArm  -53.7451 70.7048 14.963
RightForeArm  -51.4664 5.60866 3.04202
RightHand  -3.55963 11.7065 -24.1632
LeftUpLeg  -32.8856 7.6334 -3.13947
LeftLeg  47.1246 3.80509 4.8042
LeftFoot  -11.3407 0.0778552 -6.41145
LeftToes  1.45487e-011 -6.19069e-011 1.65092e-011
527
root  -9.34256 37.3855 -6.87229 -5.76541 -67.6571 12.556
RightUpLeg  -35.6625 -18.2028 -7.90758
RightLeg  9.23143 -24.3406 3.98525
RightFoot  7.48965 -1.06772 6.8031
RightToes  5.82063e-011 0 -3.6325e-017
Spine  66.3571 -6.0721 6.53074
Spine1  7.4965 -0.89105 -3.48433
HEad  -39.8272 -3.92186 5.30929
LeftShoulder1  3.05172 -23.6718 -3.11406
LeftArm  -42.5565 -76.6091 -20.4887
LeftForeArm  -23.5344 3.39647 -0.214139
LeftHand  -0.244104 0.0205437 5.32207
RightShoulder  2.28261 12.389 6.74207
RightArm  -54.2333 70.3272 14.0932
RightForeArm  -52.1531 5.46831 3.01818
RightHand  -3.45937 11.3289 -24.0185
LeftUpLeg  -33.0402 8.33727 -5.76183
LeftLeg  44.499 3.82442 4.42345
LeftFoot  -12.4741 0.050271 -1.26549
LeftToes  1.45487e-011 -6.19069e-011 1.65092e-011
528
root  -8.0887 37.2153 -6.96687 -6.86243 -66.8409 13.0519
RightUpLeg  -35.4805 -20.2139 -8.21905
RightLeg  8.5639 -25.5335 3.72854
RightFoot  2.7161 -1.37031 11.1165
RightToes  5.82063e-011 0 -3.6325e-017
Spine  66.412 -5.86222 6.11191
Spine1  7.75798 -0.705108 -3.80582
HEad  -40.426 -4.12233 5.54621
LeftShoulder1  2.86829 -23.6155 -2.38025
LeftArm  -42.7476 -77.8461 -20.3712
LeftForeArm  -23.602 3.9752 -0.258379
LeftHand  -0.244104 0.0205437 5.32207
RightShoulder  2.3175 12.3963 6.98106
RightArm  -55.49 69.6041 12.3765
RightForeArm  -52.8707 5.25371 2.86672
RightHand  -3.33872 10.9077 -23.7893
LeftUpLeg  -34.3768 8.86584 -7.49014
LeftLeg  43.6847 3.92596 4.41315
LeftFoot  -10.7673 0.0568101 2.08399
LeftToes  1.45487e-011 -6.19069e-011 1.65092e-011
529
root  -6.82488 37.1515 -7.11154 -6.78302 -66.9885 12.2133
RightUpLeg  -39.721 -27.7667 -1.85546
RightLeg  14.0417 -16.9494 0.331884
RightFoot  0.508053 -1.18197 11.3676
RightToes  5.82063e-011 0 -3.6325e-017
Spine  66.5084 -5.41683 6.07198
Spine1  8.5204 0.0115888 -4.42226
HEad  -40.7397 -4.1946 5.32176
LeftShoulder1  2.70515 -23.6932 -1.66922
LeftArm  -43.0095 -78.6051 -20.1568
LeftForeArm  -23.4554 4.08402 -0.315339
LeftHand  -0.244104 0.0205437 5.32207
RightShoulder  2.32134 12.4148 6.98902
RightArm  -56.7191 69.0489 11.1839
RightForeArm  -53.2026 4.85404 2.55709
RightHand  -3.27717 10.7611 -23.5726
LeftUpLeg  -35.3637 9.78288 -8.05187
LeftLeg  42.7611 3.39992 3.76981
LeftFoot  -8.65998 -0.0145905 2.90419
LeftToes  1.45487e-011 -6.19069e-011 1.65092e-011
